<svg width="40" height="26" viewBox="0 0 40 26" fill="none" xmlns="http://www.w3.org/2000/svg">
<g clip-path="url(#clip0)">
<path d="M0.455539 11.8469C0.372083 11.8469 0.305843 11.9205 0.295052 12.0254L0.00257111 14.5589L0.295052 17.0487C0.305843 17.1536 0.372042 17.2267 0.455539 17.2267C0.536368 17.2267 0.602204 17.1542 0.615096 17.0496V17.0491V17.0496L0.961774 14.5588L0.615096 12.0249C0.602608 11.9204 0.535964 11.8469 0.455539 11.8469ZM2.10038 10.4626C2.0866 10.3538 2.01821 10.2787 1.93391 10.2787C1.84916 10.2787 1.77904 10.3562 1.76744 10.4626C1.76744 10.4636 1.37429 14.5589 1.37429 14.5589L1.76744 18.5644C1.77864 18.6718 1.84875 18.7493 1.93391 18.7493C2.01777 18.7493 2.08619 18.6738 2.09993 18.5654L2.54724 14.5589L2.10038 10.4626V10.4626ZM8.29611 6.68426C8.13482 6.68426 8.00145 6.83482 7.99373 7.02613L7.68059 14.5623L7.99373 19.4326C8.00189 19.6228 8.13482 19.7729 8.29611 19.7729C8.45656 19.7729 8.58948 19.6223 8.59894 19.4316V19.4331L8.95293 14.5623L8.59894 7.02613C8.58944 6.83482 8.45652 6.68426 8.29611 6.68426V6.68426ZM5.08941 9.30355C4.96554 9.30355 4.86446 9.41637 4.85452 9.56694L4.50182 14.5603L4.85452 19.3913C4.86397 19.5409 4.9655 19.6537 5.08941 19.6537C5.21199 19.6537 5.31306 19.5409 5.32385 19.3913L5.72473 14.5603L5.32385 9.56592C5.31306 9.41637 5.21199 9.30355 5.08941 9.30355ZM11.5549 19.7725C11.7549 19.7725 11.9175 19.5885 11.9256 19.353L12.2328 14.5647L11.9261 4.53136C11.9179 4.2959 11.7553 4.11197 11.5553 4.11197C11.3536 4.11197 11.1906 4.29641 11.1841 4.53187L10.9118 14.5642L11.1841 19.3545C11.1905 19.588 11.3535 19.7725 11.5549 19.7725V19.7725ZM18.2263 19.7951C18.5016 19.7951 18.7288 19.5366 18.7339 19.2187V19.2221V19.2187L18.9481 14.5677L18.7339 2.97989C18.7291 2.66254 18.5016 2.40358 18.2263 2.40358C17.9506 2.40358 17.723 2.66208 17.7187 2.9804L17.5273 14.5638C17.5273 14.5711 17.7187 19.2216 17.7187 19.2216C17.7231 19.5365 17.951 19.7951 18.2263 19.7951V19.7951ZM14.8652 19.7769C15.1048 19.7769 15.2979 19.5576 15.3044 19.2781V19.2815L15.565 14.5657L15.3039 4.45979C15.2975 4.18018 15.1044 3.96145 14.8648 3.96145C14.6234 3.96145 14.4303 4.18022 14.4252 4.45979L14.1933 14.5662L14.4256 19.281C14.4308 19.5576 14.6239 19.7769 14.8652 19.7769V19.7769ZM6.68652 19.7328C6.8289 19.7328 6.9442 19.6027 6.95495 19.4316L7.33262 14.5603L6.95495 9.92651C6.94464 9.75534 6.82938 9.6263 6.68652 9.6263C6.54203 9.6263 6.42673 9.75626 6.41772 9.92849L6.08518 14.5603L6.41772 19.4311C6.42717 19.6027 6.54199 19.7328 6.68652 19.7328ZM3.50523 19.4659C3.6093 19.4659 3.6936 19.3722 3.70565 19.2427L4.12976 14.5593L3.70605 9.69939C3.69356 9.56943 3.60926 9.47569 3.50519 9.47569C3.39979 9.47569 3.31548 9.56989 3.30473 9.69939L2.93138 14.5593L3.30473 19.2418C3.31508 19.3717 3.39939 19.4659 3.50523 19.4659V19.4659ZM16.5393 4.29152C16.2791 4.29152 16.0704 4.52749 16.0653 4.82963L15.8537 14.5667L16.0653 19.252C16.0705 19.5503 16.2787 19.7862 16.5393 19.7862C16.7991 19.7862 17.0065 19.5508 17.0125 19.2486V19.2525L17.2499 14.5672L17.0125 4.82862C17.0064 4.52749 16.7991 4.29152 16.5393 4.29152V4.29152ZM9.91945 19.7823C10.0993 19.7823 10.2477 19.615 10.2563 19.4016L10.5866 14.5637L10.2563 5.30391C10.2472 5.09002 10.0993 4.92328 9.91945 4.92328C9.73795 4.92328 9.58999 5.09053 9.58223 5.30391L9.28975 14.5637L9.58267 19.4036C9.58995 19.615 9.7379 19.7823 9.91945 19.7823ZM13.6083 19.3256V19.3231L13.8922 14.5652L13.6083 4.19391C13.6014 3.93642 13.4234 3.73433 13.2035 3.73433C12.9824 3.73433 12.8044 3.93592 12.7984 4.19391L12.5463 14.5647L12.7988 19.3251C12.8048 19.5802 12.9829 19.7817 13.2036 19.7817C13.4238 19.7817 13.601 19.5802 13.6084 19.3236V19.3256H13.6083ZM35.08 8.5869C34.406 8.5869 33.7629 8.7424 33.1771 9.02247C32.7856 3.96634 29.0675 6.10352e-05 24.5321 6.10352e-05C23.4224 6.10352e-05 22.3406 0.249252 21.3853 0.670577C21.014 0.834416 20.9151 1.00314 20.9117 1.33031V19.1358C20.9156 19.4791 21.1491 19.7651 21.4429 19.7989C21.4554 19.8004 34.9919 19.8082 35.0797 19.8082C37.7964 19.8082 39.9992 17.2963 39.9992 14.1978C39.9991 11.0993 37.7968 8.5869 35.08 8.5869V8.5869ZM19.906 1.31464C19.6105 1.31464 19.3679 1.5913 19.3636 1.93119L19.1416 14.5691L19.364 19.1559C19.3679 19.4909 19.6105 19.7671 19.906 19.7671C20.2006 19.7671 20.4432 19.4909 20.4475 19.151V19.1564L20.6888 14.5691L20.4475 1.93022C20.4432 1.5913 20.2006 1.31464 19.906 1.31464V1.31464ZM3.97538 23.3748C3.3934 23.2188 3.23595 23.1354 3.23595 22.8725C3.23595 22.6871 3.36713 22.4953 3.76029 22.4953C4.09622 22.4953 4.35863 22.6507 4.59437 22.9259L5.12388 22.3403C4.77765 21.9278 4.35822 21.6825 3.787 21.6825C3.06265 21.6825 2.47551 22.149 2.47551 22.9088C2.47551 23.7338 2.94783 23.9791 3.62401 24.1581C4.31607 24.3372 4.44213 24.4573 4.44213 24.7266C4.44213 25.0435 4.23694 25.1813 3.80248 25.1813C3.45108 25.1813 3.12073 25.0439 2.86353 24.7021L2.33393 25.2407C2.61178 25.7072 3.14732 26 3.76025 26C4.76249 26 5.20293 25.4619 5.20293 24.6668C5.20297 23.7574 4.55775 23.5303 3.97538 23.3748V23.3748ZM7.35364 21.6825C6.35229 21.6825 5.75997 22.5674 5.75997 23.8413C5.75997 25.1151 6.35224 25.9995 7.35364 25.9995C8.35504 25.9995 8.94816 25.1151 8.94816 23.8413C8.94816 22.5674 8.35504 21.6825 7.35364 21.6825V21.6825ZM7.35364 25.1691C6.76136 25.1691 6.51443 24.5888 6.51443 23.8417C6.51443 23.0942 6.76132 22.5139 7.35364 22.5139C7.94681 22.5139 8.19285 23.0942 8.19285 23.8417C8.19285 24.5888 7.94681 25.1691 7.35364 25.1691ZM11.9114 24.0987C11.9114 24.7683 11.6224 25.1813 11.1561 25.1813C10.6894 25.1813 10.4064 24.7565 10.4064 24.087V21.7478H9.67171V24.0988C9.67171 25.3182 10.27 26 11.1561 26C12.0895 26 12.6457 25.3 12.6457 24.087V21.7478H11.9114V24.0987ZM15.8128 23.5185C15.8128 23.752 15.8231 24.2778 15.8231 24.4333C15.7758 24.3254 15.6554 24.1164 15.5663 23.9605L14.2652 21.7473H13.5627V25.9343H14.2867V24.0919C14.2867 23.8585 14.2763 23.3326 14.2763 23.1771C14.3232 23.2845 14.4445 23.494 14.5331 23.65L15.8811 25.9343H16.5367V21.7473H15.8128V23.5185H15.8128V23.5185ZM18.6289 21.7478H17.4805V25.9347H18.576C19.5202 25.9347 20.454 25.3123 20.454 23.8413C20.454 22.3099 19.6776 21.7478 18.6289 21.7478V21.7478ZM18.576 25.1215H18.2147V22.5615H18.6027C19.3791 22.5615 19.6992 22.9858 19.6992 23.8413C19.6991 24.6069 19.3473 25.1215 18.576 25.1215ZM22.7247 22.5134C23.0551 22.5134 23.2649 22.6812 23.3961 22.9681L24.0779 22.6096C23.8469 22.0656 23.4271 21.6825 22.735 21.6825C21.7762 21.6825 21.1043 22.5674 21.1043 23.8413C21.1043 25.1627 21.7491 25.9995 22.7087 25.9995C23.375 25.9995 23.8155 25.6468 24.0671 25.0548L23.4486 24.6359C23.2545 25.0072 23.0601 25.1686 22.7298 25.1686C22.1792 25.1686 21.8592 24.5942 21.8592 23.8413C21.8588 23.0643 22.1746 22.5134 22.7247 22.5134V22.5134ZM25.4479 21.7478H24.7137V25.9347H26.9203V25.1087H25.4479V21.7478V21.7478ZM28.8546 21.6825C27.8524 21.6825 27.2601 22.5674 27.2601 23.8413C27.2601 25.1151 27.8524 25.9995 28.8546 25.9995C29.856 25.9995 30.4487 25.1151 30.4487 23.8413C30.4487 22.5674 29.856 21.6825 28.8546 21.6825V21.6825ZM28.8546 25.1691C28.2615 25.1691 28.0154 24.5888 28.0154 23.8417C28.0154 23.0942 28.2615 22.5139 28.8546 22.5139C29.4465 22.5139 29.6929 23.0942 29.6929 23.8417C29.6929 24.5888 29.4465 25.1691 28.8546 25.1691ZM33.4115 24.0987C33.4115 24.7683 33.1238 25.1813 32.6571 25.1813C32.1895 25.1813 31.9069 24.7565 31.9069 24.087V21.7478H31.1727V24.0988C31.1727 25.3182 31.7706 26 32.6571 26C33.5905 26 34.1462 25.3 34.1462 24.087V21.7478H33.4115V24.0987V24.0987ZM36.2122 21.7478H35.0641V25.9347H36.1597C37.1043 25.9347 38.0372 25.3123 38.0372 23.8413C38.0372 22.3099 37.2613 21.7478 36.2122 21.7478V21.7478ZM36.1597 25.1215H35.7979V22.5615H36.1864C36.9619 22.5615 37.2819 22.9858 37.2819 23.8413C37.2819 24.6069 36.9305 25.1215 36.1597 25.1215V25.1215Z" fill="url(#paint0_linear)"/>
</g>
<defs>
<linearGradient id="paint0_linear" x1="19.999" y1="-0.00356979" x2="19.999" y2="25.9964" gradientUnits="userSpaceOnUse">
<stop stop-color="#F79810"/>
<stop offset="1" stop-color="#F8310E"/>
</linearGradient>
<clipPath id="clip0">
<rect width="40" height="26" fill="white"/>
</clipPath>
</defs>
</svg>
