<svg width="21" height="21" viewBox="0 0 21 21" fill="none" xmlns="http://www.w3.org/2000/svg">
<path d="M21 3.01994C20.2191 3.3625 19.3869 3.58956 18.5194 3.69981C19.4119 3.16694 20.0931 2.32956 20.4133 1.32025C19.5812 1.81637 18.6624 2.16681 17.6833 2.36238C16.8932 1.52106 15.7671 1 14.5386 1C12.1551 1 10.2362 2.93463 10.2362 5.30631C10.2362 5.64756 10.2651 5.97569 10.3359 6.28806C6.75675 6.1135 3.58969 4.39806 1.46212 1.78488C1.09069 2.42931 0.872813 3.16694 0.872813 3.961C0.872813 5.452 1.64062 6.77369 2.78513 7.53887C2.09344 7.52575 1.41488 7.32494 0.84 7.00863C0.84 7.02175 0.84 7.03881 0.84 7.05587C0.84 9.148 2.33231 10.8857 4.28925 11.2861C3.93881 11.3819 3.55687 11.4278 3.1605 11.4278C2.88488 11.4278 2.60662 11.4121 2.34544 11.3543C2.90325 13.0592 4.48613 14.3127 6.36825 14.3534C4.9035 15.4992 3.04369 16.1896 1.03031 16.1896C0.67725 16.1896 0.338625 16.1738 0 16.1305C1.90706 17.3603 4.16719 18.0625 6.6045 18.0625C14.5267 18.0625 18.858 11.5 18.858 5.81163C18.858 5.62131 18.8514 5.43756 18.8423 5.25513C19.6967 4.64875 20.4146 3.89144 21 3.01994Z" fill="#03A9F4"/>
</svg>
